<?xml version="1.0" encoding="UTF-8" standalone="no"?>
<!-- Created with Inkscape (http://www.inkscape.org/) -->

<svg
   width="24"
   height="24"
   viewBox="0 0 6.3499997 6.3500002"
   version="1.1"
   id="svg1"
   inkscape:version="1.4.3 (0d15f75042, 2025-12-25)"
   sodipodi:docname="external.svg"
   xmlns:inkscape="http://www.inkscape.org/namespaces/inkscape"
   xmlns:sodipodi="http://sodipodi.sourceforge.net/DTD/sodipodi-0.dtd"
   xmlns="http://www.w3.org/2000/svg"
   xmlns:svg="http://www.w3.org/2000/svg">
  <sodipodi:namedview
     id="namedview1"
     pagecolor="#2d2d2d"
     bordercolor="#000000"
     borderopacity="1"
     inkscape:showpageshadow="0"
     inkscape:pageopacity="0"
     inkscape:pagecheckerboard="1"
     inkscape:deskcolor="#1a1a1a"
     inkscape:document-units="px"
     showborder="true"
     inkscape:zoom="13.191961"
     inkscape:cx="7.2771592"
     inkscape:cy="0.45482245"
     inkscape:window-width="2560"
     inkscape:window-height="1359"
     inkscape:window-x="0"
     inkscape:window-y="0"
     inkscape:window-maximized="1"
     inkscape:current-layer="layer1" />
  <defs
     id="defs1" />
  <g
     inkscape:label="Layer 1"
     inkscape:groupmode="layer"
     id="layer1">
    <path
       id="path95"
       style="baseline-shift:baseline;display:inline;overflow:visible;vector-effect:none;fill:#000000;stroke-width:0.700694;stroke-linecap:round;paint-order:stroke fill markers;enable-background:accumulate;stop-color:#000000;fill-opacity:1"
       d="M 3.1183367,0.80654368 V 1.4622925 H 4.4236794 L 2.675495,3.210477 3.1389635,3.6743236 4.887148,1.926502 V 3.2311189 H 5.5432748 V 1.2703904 0.80654368 H 5.0794282 Z M 1.8510115,1.4622925 c -0.5670413,0 -1.04428633,0.477245 -1.04428633,1.0442712 V 4.49917 c 0,0.5670262 0.47724503,1.0442863 1.04428633,1.0442863 h 1.9926063 c 0.5670262,0 1.0442712,-0.4772601 1.0442712,-1.0442863 V 3.8872306 H 4.2313992 V 4.49917 c 0,0.2149939 -0.1731504,0.3881746 -0.3881594,0.3881746 H 1.8506485 c -0.2149939,0 -0.3881746,-0.1731807 -0.3881746,-0.3881746 V 2.5065637 c 0,-0.2149939 0.1731807,-0.3881595 0.3881746,-0.3881595 H 2.462588 V 1.4622925 Z" />
  </g>
</svg>
